# xmcd
#
# Track frame offsets:
#	150
#	18479
#	32871
#	48518
#	67040
#	81416
#	99419
#	115057
#	139086
#	153166
#	172079
#	186072
#	205501
#	220804
#	235342
#	253218
#	269859
#	288194
#	307677
#	320754
#
# Disc length: 4488 seconds
#
# Revision: 0
# Processed by: cddbd v1.5.2PL0 Copyright (c) Steve Scherf et al.
# Submitted via: EasyCDDAExtractor 16.0.9.1
#
DISCID=26118614
DTITLE=Nu Country Traxx Volume 200 US
DYEAR=2015
DGENRE=country
TTITLE0=Chris Stapleton - Nobody To Blame
TTITLE1=Luke Bryan ft. Karen Fairchild - Home Alone Tonight
TTITLE2=Keith Urban - Break On Me
TTITLE3=Justin Timberlake - Drink You Away
TTITLE4=Florida Georgia Line - Confession
TTITLE5=Frankie Ballard - It All Started With A Beer
TTITLE6=Hank Williams Jr. ft. Eric Church - Are You Ready For The Country
TTITLE7=Eric Church - Mr. Misunderstood
TTITLE8=Justin Moore - You Look Like I Need A Drink
TTITLE9=Dierks Bentley - Riser
TTITLE10=Eric Paslay - High Class
TTITLE11=Charles Kelley ft. Dierks Bentley and Eric Paslay - The Driver
TTITLE12=Jon Pardi - Head Over Boots
TTITLE13=Little Big Town - Pain Killer
TTITLE14=Darius Rucker - Southern Style
TTITLE15=Keith Urban - John Cougar, John Deere, John 3:16
TTITLE16=Luke Bryan - Strip It Down
TTITLE17=Lavendine - Love For Christmas
TTITLE18=The Nickel Slots - A Shot and a Beer for Christmas
TTITLE19=Leslie Cours Mather - Santa Baby You'll Be Mine
EXTD=
EXTT0=
EXTT1=
EXTT2=
EXTT3=
EXTT4=
EXTT5=
EXTT6=
EXTT7=
EXTT8=
EXTT9=
EXTT10=
EXTT11=
EXTT12=
EXTT13=
EXTT14=
EXTT15=
EXTT16=
EXTT17=
EXTT18=
EXTT19=
PLAYORDER=
